<svg xmlns="http://www.w3.org/2000/svg" width="23" height="22" viewBox="0 0 23 22" fill="none"><path d="M20.5887 11.3637C20.4399 11.1747 16.8881 6.72938 11.9584 6.30109C7.02876 5.8728 2.76356 9.639 2.58442 9.79949C2.39484 9.96928 2.36983 10.2571 2.52729 10.457C2.67603 10.6459 6.22784 15.0914 11.1575 15.5196C16.0872 15.9479 20.3524 12.1817 20.5315 12.0213C20.7211 11.8515 20.7461 11.5636 20.5887 11.3637ZM11.241 14.5586C7.51145 14.2345 4.5307 11.2603 3.59328 10.2184C4.69635 9.35379 8.14552 6.93808 11.8749 7.26209C15.6044 7.5861 18.5853 10.5604 19.5227 11.6023C18.4196 12.4669 14.9704 14.8826 11.241 14.5586Z" fill="#127EFC"/><path d="M8.31286 10.6285C8.15744 12.4174 9.48636 13.9993 11.2753 14.1547C13.0642 14.3102 14.646 12.9812 14.8014 11.1923C14.9568 9.40339 13.6279 7.82147 11.839 7.66605C10.0501 7.51063 8.46828 8.83963 8.31286 10.6285ZM13.8404 11.1088C13.731 12.3678 12.6178 13.3031 11.3588 13.1937C10.0997 13.0843 9.16445 11.9711 9.27384 10.712C9.38322 9.45303 10.4965 8.51766 11.7555 8.62705C13.0145 8.73643 13.9498 9.84978 13.8404 11.1088Z" fill="#127EFC"/><path d="M12.1484 4.11669C12.4138 4.13975 12.6475 3.94331 12.6706 3.67796L12.7903 2.30004C12.8134 2.03462 12.6169 1.80088 12.3516 1.77783C12.0862 1.75477 11.8524 1.9512 11.8294 2.21655L11.7096 3.59441C11.6866 3.85982 11.883 4.09363 12.1484 4.11669Z" fill="#127EFC"/><path d="M15.9371 5.68389C16.016 5.74997 16.1097 5.78648 16.2048 5.79475C16.3564 5.80792 16.5116 5.74942 16.6165 5.62415L17.5049 4.56407C17.6761 4.35988 17.6493 4.05575 17.4452 3.88467C17.2409 3.71353 16.9367 3.7405 16.7658 3.94448L15.8773 5.00455C15.7062 5.20869 15.7331 5.51289 15.9371 5.68389Z" fill="#127EFC"/><path d="M7.48697 4.83106C7.56879 4.97267 7.71164 5.05695 7.86305 5.0701C7.95824 5.07837 8.05684 5.05855 8.14591 5.00708C8.37642 4.87375 8.45532 4.57881 8.32198 4.34815L7.6297 3.15074C7.49639 2.92021 7.20141 2.8415 6.97079 2.97466C6.74025 3.10798 6.66135 3.40293 6.7947 3.63358L7.48697 4.83106Z" fill="#127EFC"/><path d="M10.9678 17.7036C10.7024 17.6805 10.4686 17.877 10.4456 18.1423L10.3258 19.5203C10.3028 19.7857 10.4992 20.0194 10.7646 20.0425C11.03 20.0655 11.2637 19.8692 11.2868 19.6038L11.4065 18.2258C11.4295 17.9604 11.2331 17.7266 10.9678 17.7036Z" fill="#127EFC"/><path d="M15.6287 16.99C15.4955 16.7595 15.2005 16.6807 14.9698 16.8139C14.7393 16.9472 14.6604 17.2422 14.7937 17.4729L15.4861 18.6702C15.5679 18.8119 15.7107 18.8961 15.8621 18.9093C15.9573 18.9175 16.0559 18.8978 16.1449 18.8463C16.3754 18.713 16.4543 18.418 16.321 18.1873L15.6287 16.99Z" fill="#127EFC"/><path d="M7.17955 16.137C6.97535 15.9659 6.67108 15.9928 6.50014 16.1968L5.61173 17.2569C5.44058 17.4611 5.4674 17.7652 5.67154 17.9363C5.75034 18.0024 5.84403 18.0389 5.93925 18.0471C6.09068 18.0603 6.24594 18.0019 6.35093 17.8766L7.23934 16.8165C7.4105 16.6122 7.38368 16.3081 7.17955 16.137Z" fill="#127EFC"/></svg>