<?xml version="1.0" encoding="UTF-8"?>
<svg width="1920" height="501" fill="none" version="1.1" viewBox="0 0 1920 501" xmlns="http://www.w3.org/2000/svg">
 <g stroke="#707070" stroke-opacity=".7" stroke-width="2">
  <path d="m-20 428.5 121-23.5m114.51-31.543 167.83-162.1m54.162-18.349 176 67.99 361 90.5 264 148 400.5-416 365-82m-1597 156.59-32.521-105.59-397 65" stroke-linejoin="round"/>
  <ellipse cx="163.36" cy="394.18" rx="61.801" ry="60.038"/>
  <path d="m185.69 395.95c-0.35532 2.8296-0.98019 7.5839-0.98019 11.376m0 0c0.25582 2.7235 0.90831 4.8333 2.2501 5.056 3.0471 0.50556 3.8088-9.0586 3.8088-13.904 0.42326-6.5305 2.2854-19.592 6.3483-19.592 4.0628 0 0.42291 17.485-1.2699 24.016 2.7509-6.5305 10.157-23.131 12.697-19.592 2.539 3.5392-4.867 20.013-8.8875 27.808 3.5974-4.4239 10.538-11.881 9.5223-6.3199-1.2696 6.952-9.5225 15.8-14.601 22.752-2.8731 3.933-4.9335 11.709-5.8364 20.696m-4.0313-40.92c-0.30819 1.6854-1.5594 5.056-4.0986 5.056-1.2602 0-1.5302-2.8019-1.3531-6.3199m1.3531-9.4799c-0.53296 2.8651-1.1733 5.9094-1.3531 9.4799m1.3531-9.4799-1.3531 9.4799m1.3531-9.4799c-1.9044 1.2641-5.0783 2.9072-5.0783 12.008 0 9.1006 1.2696 11.376 1.2696 16.432 0 2.961-5.2256 16.977-9.5562 28.083" stroke-linecap="round" stroke-linejoin="round"/>
  <path d="m121.82 349.72c-3.2392 17.279-4.3189 52.7 17.276 56.156 26.993 4.3197 36.711-28.078 34.552-48.597m-17.276 10.799s2.2301-3.4221 5.3987-4.3197c2.9535-0.83665 7.5581 0 7.5581 0m-24.834 2.1599s-4.3189-5.3996-8.6378-5.3996c-2.9516 0-7.5581 3.2397-7.5581 3.2397m6.4784 16.199h29.152c-1.7995 4.3197-7.774 12.959-17.276 12.959-9.5016 0-11.877-8.6394-11.877-12.959z" stroke-linejoin="round"/>
  <circle cx="407.02" cy="189.99" r="31.896"/>
 </g>
</svg>
