<svg xmlns="http://www.w3.org/2000/svg" viewBox="0 0 273.6 360" ><path d="m217.02 167.04c18.631-9.483 30.288-26.184 27.565-54.007-3.667-38.023-36.526-50.773-78.006-54.404l-8e-3 -52.741h-32.139l-9e-3 51.354c-8.456 0-17.076 0.166-25.657 0.338l-7e-3 -51.685-32.11-3e-3 -6e-3 52.728c-6.959 0.142-13.793 0.277-20.466 0.277v-0.156l-44.33-0.018 6e-3 34.282s23.734-0.446 23.343-0.013c13.013 9e-3 17.262 7.559 18.484 14.076l0.01 60.083v84.397c-0.573 4.09-2.984 10.625-12.083 10.637 0.414 0.364-23.379-4e-3 -23.379-4e-3l-6.375 38.335h41.817c7.792 9e-3 15.448 0.13 22.959 0.19l0.028 53.338 32.102 9e-3 -9e-3 -52.779c8.832 0.18 17.357 0.258 25.684 0.247l-9e-3 52.532h32.138l0.018-53.249c54.022-3.1 91.842-16.697 96.544-67.385 3.79-40.809-15.434-59.025-46.105-66.379zm-107.49-71.721c18.126 0 75.132-5.767 75.14 32.064-8e-3 36.269-56.996 32.032-75.14 32.032v-64.096zm-0.014 167.13 0.014-70.672c21.778-6e-3 90.085-6.261 90.094 35.32 9e-3 39.876-68.316 35.336-90.108 35.352z" fill="#fff"/></svg>