<svg xmlns="http://www.w3.org/2000/svg" width="947" height="872" viewBox="0 0 947 872" fill="none"><g style="mix-blend-mode:lighten" filter="url(#filter0_f_205_1137)"><path d="M917 672C1031.88 672 1125 603.625 1125 519.28C1125 434.936 1031.88 366.561 917 366.561C883.879 366.561 930.875 190.307 903.082 200.419L847.602 310.484L305.961 351.315C184.861 353.248 186.823 396.357 217.939 416.076C242.832 431.85 634.944 481.584 714.671 483.71C710.963 495.123 709 507.034 709 519.28C709 543.5 716.678 566.403 730.345 586.748C770.044 579.982 853.03 573.757 867.383 602.986C881.735 632.216 836.173 647.153 811.598 650.968C842.507 664.334 878.534 672 917 672Z" fill="url(#paint0_radial_205_1137)"/></g><defs><filter id="filter0_f_205_1137" x="0" y="0" width="1325" height="872" filterUnits="userSpaceOnUse" color-interpolation-filters="sRGB"><feFlood flood-opacity="0" result="BackgroundImageFix"/><feBlend mode="normal" in="SourceGraphic" in2="BackgroundImageFix" result="shape"/><feGaussianBlur stdDeviation="100" result="effect1_foregroundBlur_205_1137"/></filter><radialGradient id="paint0_radial_205_1137" cx="0" cy="0" r="1" gradientUnits="userSpaceOnUse" gradientTransform="translate(980.772 544.493) rotate(-45.6115) scale(114.814 133.121)"><stop stop-color="#FCBB32"/><stop offset="1" stop-color="#FF3B3B"/></radialGradient></defs></svg>