<svg fill="none" version="1.1" viewBox="0 0 1920 1486" xmlns="http://www.w3.org/2000/svg"><g opacity=".5"><g filter="url(#filter0_f_205_1098)" opacity=".5"><path d="m421 792c-87.8 19.1-233 55.8-294 71.8v46.4c113-35.1 366-108 476-118 138-12.8 198 81.4 334 118 135 36.8 504-11.1 691-11.1 150 0 294 36 348 54v-236c-6.26 33.5-62.2 104-236 116-217 15.8-271-41.4-436-15.8-166 25.7-367-8.17-542-40-175-31.8-231-9.63-341 14.3z" fill="#00BEFF"/></g><g filter="url(#filter1_f_205_1098)" style="mix-blend-mode:color-dodge"><path d="m732 794c-228 1.02-230 29.3-202 43.3-30.7 22.2-69.4 64.1 21.7 54.6 114-12 476 36.2 727 68.8 201 26.1 619 35 802 36.2l160-220c-91.2 8.92-299 30.8-402 47.2-128 20.4-319 20.6-536-10.7-217-31.4-287-20.6-572-19.4z" fill="#8B78FF"/></g><g filter="url(#filter2_bf_205_1098)" opacity=".5"><ellipse cx="752" cy="743" rx="1216" ry="243" fill="url(#paint0_radial_205_1098)"/></g></g><defs><filter id="filter0_f_205_1098" x="-73" y="517" width="2249" height="636" color-interpolation-filters="sRGB" filterUnits="userSpaceOnUse"><feFlood flood-opacity="0" result="BackgroundImageFix"/><feBlend in="SourceGraphic" in2="BackgroundImageFix" result="shape"/><feGaussianBlur result="effect1_foregroundBlur_205_1098" stdDeviation="100"/></filter><filter id="filter1_f_205_1098" x="295" y="577" width="2147" height="620" color-interpolation-filters="sRGB" filterUnits="userSpaceOnUse"><feFlood flood-opacity="0" result="BackgroundImageFix"/><feBlend in="SourceGraphic" in2="BackgroundImageFix" result="shape"/><feGaussianBlur result="effect1_foregroundBlur_205_1098" stdDeviation="100"/></filter><filter id="filter2_bf_205_1098" x="-964" y="0" width="3431" height="1486" color-interpolation-filters="sRGB" filterUnits="userSpaceOnUse"><feFlood flood-opacity="0" result="BackgroundImageFix"/><feGaussianBlur in="BackgroundImageFix" stdDeviation="250"/><feComposite in2="SourceAlpha" operator="in" result="effect1_backgroundBlur_205_1098"/><feBlend in="SourceGraphic" in2="effect1_backgroundBlur_205_1098" result="shape"/><feGaussianBlur result="effect2_foregroundBlur_205_1098" stdDeviation="250"/></filter><radialGradient id="paint0_radial_205_1098" cx="0" cy="0" r="1" gradientTransform="translate(752 743) rotate(90) scale(243 1216)" gradientUnits="userSpaceOnUse"><stop stop-color="#8B78FF" offset="0"/><stop stop-color="#8B78FF" stop-opacity="0" offset="1"/></radialGradient><filter id="filter0_f_205_1137" x="0" y="0" width="1325" height="872" color-interpolation-filters="sRGB" filterUnits="userSpaceOnUse"><feFlood flood-opacity="0" result="BackgroundImageFix"/><feBlend in="SourceGraphic" in2="BackgroundImageFix" result="shape"/><feGaussianBlur result="effect1_foregroundBlur_205_1137" stdDeviation="100"/></filter><radialGradient id="paint0_radial_205_1137" cx="0" cy="0" r="1" gradientTransform="matrix(80.3 -82 95.1 93.1 981 544)" gradientUnits="userSpaceOnUse"><stop stop-color="#FCBB32" offset="0"/><stop stop-color="#FF3B3B" offset="1"/></radialGradient></defs><g transform="translate(919 380)" fill="none"><path d="m917 672c115 0 208-68.4 208-153 0-84.3-93.1-153-208-153-33.1 0 13.9-176-13.9-166l-55.5 110-542 40.8c-121 1.93-119 45-88 64.8 24.9 15.8 417 65.5 497 67.6-3.71 11.4-5.67 23.3-5.67 35.6 0 24.2 7.68 47.1 21.3 67.5 39.7-6.77 123-13 137 16.2 14.4 29.2-31.2 44.2-55.8 48 30.9 13.4 66.9 21 105 21z" fill="url(#paint0_radial_205_1137)" filter="url(#filter0_f_205_1137)" style="mix-blend-mode:lighten"/></g></svg>