<?xml version="1.0" encoding="UTF-8"?><svg width="534" height="566" fill="none" version="1.1" viewBox="0 0 534 566" xmlns="http://www.w3.org/2000/svg" xmlns:xlink="http://www.w3.org/1999/xlink"><ellipse transform="rotate(-23.5 240 125)" cx="227" cy="187" rx="27.1" ry="25.9" fill="url(#paint0_linear_205_1145)" filter="url(#filter0_d_205_1145)"/><path d="m79 213c18.2 2.5 17.7 22.3 15.2 32-1.38 21.8-43.2 125-58.1 122-20.7-2.72-34.3-41.5-20.1-95.2 4.46-16.9 1.33-27.4 5.43-32-1.99 13.9-1.62 36.5 1.14 35.2 2.76-1.3 6.91-29.2 10.8-41.7-0.809-1.38-3.27-9.59 2.02-11 12.4-3.31 10.5 9.69 4 13l-6.02 27.9c2.31-5.7 4.8-11.3 7.41-16.7 11.1-22.8 28.2-35.1 38.1-33.7z" fill="url(#paint1_linear_205_1145)" filter="url(#filter0_d_205_1145)"/><path d="m231 127c-42.2 52.8-48.3 88.3-42.5 96.8l-28.6-3.53c6.99-32.6 48.1-83.9 63-99.4 0 0 2.9-8.53 5.1-15.2 7.12-21.6 9.84-56.4 9.84-56.4s-4.47-4.62-0.499-8c5.3-4.5 16.4 4.15 6.12 8.3 0 0-11.4 55.1-7.35 57.7 2.68 1.78 41.2-44 41.2-44 3.35-16.2 21 4.34 4.12 5.45 0 0-41.1 39.4-39.3 44.4 2.73 7.61 56.4-15.7 56.4-15.7 18.5-14.8 18.7 19.1 2.19 6.52z" fill="#00beff" filter="url(#filter0_d_205_1145)"/><path d="m416 331c-77.5 1.44-123-14.9-126-26l-16.8 28.5c34.6 16.5 118 13.4 143 10.7 24.7 12 45 27.6 69.1 40.9 0 0 4.28 6.75 9.4 6.15 7.68-0.912 10.3-17.8-5.51-13.6 0 0-61.1-30.1-59.9-34.4 1.6-5.88 66.4-8.34 66.4-8.34 24.2 10.8 15.3-22.6-2.24-8.02 0 0-62.6 9.74-64.7 5.03-2.14-4.71 49.5-38.1 49.5-38.1 25.5-6.42-4.72-28.7-5.02-4.62z" fill="url(#paint2_linear_205_1145)" filter="url(#filter0_d_205_1145)"/><path d="m295 310c-48.7 75.9-121 99.5-157 107-52.9-3.91-144-59-70.8-154 69.8-91.2 130-55.1 147-67.9 53.4-40.8 117-25.3 132-1.88 21.2 32.2-34.3 109-51.1 117z" fill="url(#paint3_linear_205_1145)" filter="url(#filter0_d_205_1145)"/><path d="m252 369c10.2-40.2-12.9-49.2-39.4-45.4-15.3 2.14-28.7 10.6-40.8 20.2l-62.8 49.5c4.78 0.678 40.9 13.9 49.6 13.3-12 4.24-46.7 20.3-48.1 36.8-0.824 9.51 9.57 25.3 107 64.1 3.69 23 37.2-11.4 8.75-12.2-11.6-0.312-64.2-21.1-64.3-28.1-0.101-6.99 67.8 11 67.8 11 13.2 19.4 30.1-18 2.64-12.8-8.04 1.54-69.5-7.67-67.8-10.9s60.1-21.5 60.1-21.5c3.98 1.83 11.9 3.95 13.4-3.48 2.83-13.7-17.4-15-15.4-4.73l-24 7.02c7.92-3.94 16-8.97 23.4-15.3 13.4-11.4 24.9-26.9 30.2-47.5z" fill="url(#paint4_linear_205_1145)" filter="url(#filter0_d_205_1145)"/><path d="m198 432c-43 24.9-48.4 4.45-55 4.46-0.081 4.42 0.77 20.5 10.7 20.5 6.29 0.038 11.9-5.04 49-15.7l21.6-8.02c19 8.91 18.8-17.8 4.89-15.6-6.88 1.08-7.12 4.91-7.4 7.63z" fill="url(#paint5_linear_205_1145)" filter="url(#filter0_d_205_1145)"/><path d="m77.3 364c-53.9-15.6-33.4-66.2-16.4-90.9 41.5-62.1 85.1-79.7 145-74.3 13.1 1.17 50.1-52.7 125-19 17.8 8.01 10.6 30.3-4.38 50.4-4.46-6.72-17.9-18.9-36-13.9-22.6 6.22-23.3 36.8-2.74 46.7-9.38 2.5-32.6-28.1-70.9 8.12-11 10.4-72.2 112-140 93z" fill="url(#paint6_linear_205_1145)" filter="url(#filter0_d_205_1145)"/><ellipse transform="rotate(-23.5 287 176)" cx="274" cy="239" rx="27.1" ry="25.6" fill="url(#paint7_linear_205_1145)" filter="url(#filter0_d_205_1145)"/><path d="m197 339c17.9-15.1 63.8-13.3 48.6 30m-22.9-171c14.4-8.72 50.1-25.6 78-23.4s42.2 20.2 45.9 28.9m-268 59.2c11.2-20.7 72.1-69.8 129-55.5" filter="url(#filter1_f_205_1145)" stroke="#fff" stroke-width="2"/><rect transform="matrix(.904 .417 -.518 .86 292 212)" width="40.1" height="40.1" fill="url(#pattern0_205_1145)" filter="url(#filter0_d_205_1145)"/><defs><filter id="filter0_d_205_1145" x="-45.8" y="13.7" width="560" height="536" color-interpolation-filters="sRGB" filterUnits="userSpaceOnUse"><feFlood flood-opacity="0" result="BackgroundImageFix"/><feColorMatrix in="SourceAlpha" result="hardAlpha" values="0 0 0 0 0 0 0 0 0 0 0 0 0 0 0 0 0 0 127 0"/><feOffset dy="4"/><feGaussianBlur stdDeviation="15"/><feComposite in2="hardAlpha" operator="out"/><feColorMatrix values="0 0 0 0 0.345098 0 0 0 0 0.215686 0 0 0 0 0.992157 0 0 0 0.5 0"/><feBlend in2="BackgroundImageFix" result="effect1_dropShadow_205_1145"/><feBlend in="SourceGraphic" in2="effect1_dropShadow_205_1145" result="shape"/></filter><filter id="filter1_f_205_1145" x="41.9" y="163" width="289" height="216" color-interpolation-filters="sRGB" filterUnits="userSpaceOnUse"><feFlood flood-opacity="0" result="BackgroundImageFix"/><feBlend in="SourceGraphic" in2="BackgroundImageFix" result="shape"/><feGaussianBlur result="effect1_foregroundBlur_205_1145" stdDeviation="5"/></filter><pattern id="pattern0_205_1145" width="1" height="1" patternContentUnits="objectBoundingBox"><use transform="translate(-.116 -.137) scale(.000599)" xlink:href="#image0_205_1145"/></pattern><linearGradient id="paint0_linear_205_1145" x1="227" x2="227" y1="161" y2="213" gradientUnits="userSpaceOnUse"><stop stop-color="#0069FF" offset="0"/><stop stop-color="#5837FD" offset="1"/></linearGradient><linearGradient id="paint1_linear_205_1145" x1="38.6" x2="6.82" y1="210" y2="364" gradientTransform="translate(26)" gradientUnits="userSpaceOnUse"><stop stop-color="#00BEFF" offset="0"/><stop stop-color="#5837FD" offset="1"/></linearGradient><linearGradient id="paint2_linear_205_1145" x1="484" x2="256" y1="339" y2="292" gradientTransform="translate(26)" gradientUnits="userSpaceOnUse"><stop stop-color="#4123F7" offset="0"/><stop stop-color="#00BEFF" offset="1"/></linearGradient><linearGradient id="paint3_linear_205_1145" x1="192" x2="137" y1="157" y2="426" gradientTransform="translate(26)" gradientUnits="userSpaceOnUse"><stop stop-color="#00BEFF" offset="0"/><stop stop-color="#0069FF" offset="1"/></linearGradient><linearGradient id="paint4_linear_205_1145" x1="181" x2="101" y1="327" y2="398" gradientTransform="translate(26)" gradientUnits="userSpaceOnUse"><stop stop-color="#00BEFF" offset="0"/><stop stop-color="#016EFF" offset="1"/></linearGradient><linearGradient id="paint5_linear_205_1145" x1="173" x2="152" y1="431" y2="444" gradientTransform="translate(26)" gradientUnits="userSpaceOnUse"><stop stop-color="#5837FD" offset="0"/><stop stop-color="#026FFF" offset="1"/></linearGradient><linearGradient id="paint6_linear_205_1145" x1="186" x2="138" y1="151" y2="382" gradientTransform="translate(26)" gradientUnits="userSpaceOnUse"><stop stop-color="#00BEFF" offset="0"/><stop stop-color="#fff" stop-opacity="0" offset="1"/></linearGradient><linearGradient id="paint7_linear_205_1145" x1="274" x2="274" y1="213" y2="264" gradientUnits="userSpaceOnUse"><stop stop-color="#0069FF" offset="0"/><stop stop-color="#5837FD" offset="1"/></linearGradient></defs></svg>