<svg viewBox="0 0 64 64" xmlns="http://www.w3.org/2000/svg"><path stroke="#fff" fill="#fff" d="M63.7 18.6L48.8 4.3c-.186-.176-.432-.481-.687-.481h-32.2c-.255 0-.501.305-.687.481L.326 18.5a1.066 1.066 0 00-.102 1.39c.21.27 30.8 39.7 31.1 40 .102.115.24.222.343.266.276.121.508.13.79.006a1.06 1.06 0 00.343-.25c.015-.016.038-.022.052-.04l31-39.9a1 1 0 00-.102-1.34zM15.6 6.5l4.99 11.4h-17l12-11.4zm8.45 11.4l7.92-11.3 7.92 11.3h-15.8zm16.6 2l-8.72 34.9-8.72-34.9h17.4zm-6.79-14h12.5l-4.82 11-7.72-11zm-11.6 11l-4.82-11h12.5l-7.72 11zm-1.14 3.03l8.66 34.6-26.9-34.6h18.2zm21.6 0h18.2l-26.9 34.6 8.66-34.6zm.597-2l4.99-11.4 12 11.4h-17z"/></svg>