<svg viewBox="0 0 693 121" xmlns="http://www.w3.org/2000/svg"><rect width="693" height="121" rx="20" fill="#252525" /><path d="m224 60.5c0.36-2.06 1.15-3.9 2.37-5.52 1.22-1.64 2.72-2.91 4.5-3.81 1.78-0.92 3.67-1.38 5.67-1.38 2.36 0 4.3 0.58 5.82 1.74 1.54 1.14 2.47 2.75 2.79 4.83h-4.83c-0.32-0.88-0.86-1.55-1.62-2.01s-1.7-0.69-2.82-0.69c-1.24 0-2.39 0.28-3.45 0.84s-1.95 1.36-2.67 2.4-1.2 2.24-1.44 3.6c-0.1 0.48-0.15 1.03-0.15 1.65 0 1.64 0.48 2.93 1.44 3.87 0.98 0.92 2.32 1.38 4.02 1.38 1.58 0 2.96-0.43 4.14-1.29 1.2-0.86 2.09-2.05 2.67-3.57h-7.2l0.54-3.18h11.3l-0.66 3.66c-0.54 1.46-1.38 2.81-2.52 4.05s-2.5 2.24-4.08 3c-1.58 0.74-3.27 1.11-5.07 1.11-1.78 0-3.35-0.36-4.71-1.08-1.34-0.72-2.39-1.72-3.15-3-0.74-1.3-1.11-2.8-1.11-4.5 0-0.68 0.06-1.38 0.18-2.1zm29.6 10.8c-1.42 0-2.68-0.29-3.78-0.87-1.08-0.58-1.92-1.4-2.52-2.46s-0.9-2.28-0.9-3.66c0-1.88 0.44-3.59 1.32-5.13 0.9-1.56 2.12-2.79 3.66-3.69 1.56-0.9 3.29-1.35 5.19-1.35 1.42 0 2.68 0.3 3.78 0.9 1.12 0.58 1.98 1.4 2.58 2.46 0.62 1.06 0.93 2.28 0.93 3.66 0 1.9-0.45 3.62-1.35 5.16s-2.14 2.76-3.72 3.66c-1.56 0.88-3.29 1.32-5.19 1.32zm0.57-3.6c1 0 1.91-0.29 2.73-0.87s1.46-1.35 1.92-2.31 0.69-1.97 0.69-3.03c0-1.2-0.34-2.12-1.02-2.76-0.66-0.66-1.5-0.99-2.52-0.99s-1.93 0.29-2.73 0.87c-0.78 0.58-1.39 1.36-1.83 2.34-0.44 0.96-0.66 1.98-0.66 3.06 0 1.18 0.31 2.09 0.93 2.73 0.64 0.64 1.47 0.96 2.49 0.96zm25-1.8c-0.02 0.12-0.03 0.28-0.03 0.48 0 0.4 0.11 0.69 0.33 0.87 0.24 0.16 0.63 0.24 1.17 0.24h1.98l-0.63 3.54h-2.67c-3 0-4.5-1.25-4.5-3.75 0-0.48 0.04-0.95 0.12-1.41l1.41-8.01h-1.98l0.6-3.45h2.01l0.72-4.11h4.23l-0.72 4.11h3.69l-0.6 3.45h-3.72l-1.41 8.04zm13.3 5.4c-1.42 0-2.68-0.29-3.78-0.87-1.08-0.58-1.92-1.4-2.52-2.46s-0.9-2.28-0.9-3.66c0-1.88 0.44-3.59 1.32-5.13 0.9-1.56 2.12-2.79 3.66-3.69 1.56-0.9 3.29-1.35 5.19-1.35 1.42 0 2.68 0.3 3.78 0.9 1.12 0.58 1.98 1.4 2.58 2.46 0.62 1.06 0.93 2.28 0.93 3.66 0 1.9-0.45 3.62-1.35 5.16s-2.14 2.76-3.72 3.66c-1.56 0.88-3.29 1.32-5.19 1.32zm0.57-3.6c1 0 1.91-0.29 2.73-0.87s1.46-1.35 1.92-2.31 0.69-1.97 0.69-3.03c0-1.2-0.34-2.12-1.02-2.76-0.66-0.66-1.5-0.99-2.52-0.99s-1.93 0.29-2.73 0.87c-0.78 0.58-1.39 1.36-1.83 2.34-0.44 0.96-0.66 1.98-0.66 3.06 0 1.18 0.31 2.09 0.93 2.73 0.64 0.64 1.47 0.96 2.49 0.96zm25.9-10.9c0.66-0.8 1.51-1.45 2.55-1.95s2.17-0.75 3.39-0.75c1.24 0 2.33 0.27 3.27 0.81 0.96 0.52 1.7 1.28 2.22 2.28s0.78 2.17 0.78 3.51c0 0.62-0.06 1.26-0.18 1.92-0.3 1.7-0.9 3.21-1.8 4.53-0.9 1.3-1.99 2.31-3.27 3.03s-2.62 1.08-4.02 1.08c-1.24 0-2.29-0.24-3.15-0.72-0.86-0.5-1.49-1.14-1.89-1.92l-0.42 2.37h-4.23l3.93-22.2h4.23l-1.41 8.01zm7.74 5.82c0.06-0.4 0.09-0.76 0.09-1.08 0-1.18-0.34-2.1-1.02-2.76s-1.55-0.99-2.61-0.99c-0.76 0-1.51 0.2-2.25 0.6-0.74 0.38-1.38 0.94-1.92 1.68s-0.9 1.61-1.08 2.61c-0.08 0.52-0.12 0.9-0.12 1.14 0 1.18 0.34 2.1 1.02 2.76 0.7 0.66 1.57 0.99 2.61 0.99 0.78 0 1.54-0.2 2.28-0.6s1.38-0.97 1.92-1.71 0.9-1.62 1.08-2.64zm14-13.8-3.93 22.2h-4.23l3.93-22.2h4.23zm7.63 22.5c-1.42 0-2.68-0.29-3.78-0.87-1.08-0.58-1.92-1.4-2.52-2.46s-0.9-2.28-0.9-3.66c0-1.88 0.44-3.59 1.32-5.13 0.9-1.56 2.12-2.79 3.66-3.69 1.56-0.9 3.29-1.35 5.19-1.35 1.42 0 2.68 0.3 3.78 0.9 1.12 0.58 1.98 1.4 2.58 2.46 0.62 1.06 0.93 2.28 0.93 3.66 0 1.9-0.45 3.62-1.35 5.16s-2.14 2.76-3.72 3.66c-1.56 0.88-3.29 1.32-5.19 1.32zm0.57-3.6c1 0 1.91-0.29 2.73-0.87s1.46-1.35 1.92-2.31 0.69-1.97 0.69-3.03c0-1.2-0.34-2.12-1.02-2.76-0.66-0.66-1.5-0.99-2.52-0.99s-1.93 0.29-2.73 0.87c-0.78 0.58-1.39 1.36-1.83 2.34-0.44 0.96-0.66 1.98-0.66 3.06 0 1.18 0.31 2.09 0.93 2.73 0.64 0.64 1.47 0.96 2.49 0.96zm20.6-13.6c1.24 0 2.29 0.25 3.15 0.75 0.88 0.48 1.5 1.11 1.86 1.89l0.42-2.37h4.23l-2.94 16.7c-0.28 1.54-0.84 2.91-1.68 4.11-0.84 1.22-1.94 2.18-3.3 2.88-1.36 0.72-2.92 1.08-4.68 1.08-2.34 0-4.17-0.55-5.49-1.65-1.3-1.1-1.89-2.6-1.77-4.5h4.17c0.08 0.76 0.44 1.36 1.08 1.8 0.66 0.46 1.51 0.69 2.55 0.69 1.24 0 2.29-0.37 3.15-1.11 0.88-0.72 1.46-1.82 1.74-3.3l0.45-2.58c-0.68 0.78-1.54 1.43-2.58 1.95-1.02 0.52-2.14 0.78-3.36 0.78s-2.31-0.27-3.27-0.81c-0.94-0.56-1.68-1.34-2.22-2.34-0.52-1.02-0.78-2.2-0.78-3.54 0-0.62 0.06-1.27 0.18-1.95 0.3-1.68 0.89-3.17 1.77-4.47 0.9-1.3 1.99-2.3 3.27-3s2.63-1.05 4.05-1.05zm3.96 8.58c0.08-0.52 0.12-0.9 0.12-1.14 0-1.18-0.35-2.1-1.05-2.76-0.68-0.66-1.54-0.99-2.58-0.99-0.78 0-1.54 0.19-2.28 0.57-0.72 0.38-1.35 0.94-1.89 1.68-0.54 0.72-0.9 1.58-1.08 2.58-0.06 0.38-0.09 0.74-0.09 1.08 0 1.2 0.34 2.15 1.02 2.85 0.68 0.68 1.54 1.02 2.58 1.02 0.78 0 1.54-0.19 2.28-0.57 0.74-0.4 1.37-0.97 1.89-1.71 0.54-0.74 0.9-1.61 1.08-2.61z" fill="#fff" /><path d="m471 61.6c0.586-0.586 0.586-1.54 0-2.12l-9.54-9.55c-0.586-0.586-1.54-0.586-2.12 0s-0.586 1.54 0 2.12l8.48 8.49-8.48 8.49c-0.586 0.586-0.586 1.54 0 2.12s1.54 0.586 2.12 0l9.54-9.55zm-60.6 0.439h59.5v-3h-59.5v3z" fill="#fff" /></svg>