<?xml version="1.0" encoding="UTF-8"?><svg width="40" height="74" version="1.1" viewBox="0 0 40 74" xmlns="http://www.w3.org/2000/svg"><path d="m22.5 73c-1.5-13 0.5-28 4.5-33.5s10.5-12.5 11.5-18c0.8-4.4-4.6667 1.5-7.5 5 3.1667-6.1667 9-19.2 7-22s-7.8335 10.333-10 15.5c1.3333-5.1667 4.2002-19 1.0002-19s-4.6667 10.333-5 15.5c0 3.8333-0.6 11.4-3 11-1.0568-0.1761-1.5707-1.8453-1.7722-4m0.772-9c-0.2798 2.2386-0.772 6-0.772 9m0 0c-0.2427 1.3333-0.85065 4.5933-2.8506 4.5933-0.9926 0-1.5828-2.81-1.4433-5.5933m1.0657-7.5c-0.4197 2.2667-0.9241 4.6751-1.0657 7.5m1.0657-7.5c-1.4999 1-3.9998 2.3-3.9998 9.5s1 9 1 13-12 33.5-12 33.5l21.5 2" fill="none" stroke="#fff" stroke-linecap="round" stroke-linejoin="round" stroke-width="1.7" /><path d="m11.665 71.118c-5.1238-0.48006-9.3313-0.88811-9.3499-0.90677-0.01866-0.018662 0.57349-1.5585 1.3159-3.4218 2.9103-7.3047 5.1273-13.1 6.9496-18.166 2.113-5.8748 3.1593-9.3447 3.2853-10.895 0.04934-0.60705-0.06527-2.3499-0.24748-3.7633-0.41919-3.2517-0.48504-3.8076-0.56377-4.7585-0.04666-0.56363-0.1128-1.8467-0.14698-2.8513-0.15001-4.4097 0.29434-7.0384 1.4808-8.7597 0.14874-0.2158 0.2784-0.3844 0.28814-0.37466 0.0097 0.0097-0.04141 0.36834-0.11365 0.79689-0.13923 0.8259-0.30085 2.0298-0.41597 3.0984-0.10946 1.0162-0.09078 3.5679 0.03199 4.3688 0.34804 2.2705 1.021 3.3781 2.1055 3.4652 0.96661 0.07759 2.0065-0.55442 2.6176-1.5909 0.1268-0.21507 0.23647-0.39104 0.2437-0.39104 0.0072 0 0.10058 0.14164 0.20743 0.31475 0.24867 0.40288 0.61063 0.73544 0.9982 0.91713 0.26748 0.12539 0.37413 0.14349 0.84545 0.14349 0.51204 0 0.55664-0.0094 0.88058-0.185 0.97181-0.5269 1.6765-1.9186 2.1381-4.2224 0.36356-1.8145 0.52773-3.4464 0.64822-6.4433 0.1028-2.5569 0.31419-4.6104 0.73193-7.11 0.75725-4.531 1.8176-7.4969 2.9818-8.3402 0.40577-0.29394 0.596-0.16453 0.78295 0.53264 0.41028 1.53 0.23483 4.6925-0.50499 9.102-0.39338 2.3447-0.96203 5.0977-1.515 7.3344-0.25396 1.0273-0.25941 1.1515-0.0646 1.4723 0.28427 0.46803 1.0672 0.51558 1.3859 0.08419 0.06228-0.08431 0.40087-0.82074 0.75242-1.6365 2.5706-5.9651 4.8694-10.401 6.5266-12.594 0.32712-0.43291 1.0229-1.1508 1.2094-1.2479 0.14764-0.07685 0.15164-0.074765 0.24271 0.12643 0.14572 0.32193 0.1264 1.8811-0.03395 2.7396-0.71217 3.8125-3.14 10.098-6.54 16.932-0.7493 1.5061-0.77699 1.5997-0.59304 2.0047 0.13265 0.29208 0.41376 0.46575 0.75388 0.46575 0.37004 0 0.54493-0.11467 0.98556-0.64619 2.1739-2.6223 4.261-4.7511 5.4527-5.5616 0.30411-0.20683 0.30394-0.2074 0.14683 0.50514-0.47427 2.1509-1.9352 4.9097-4.4129 8.3331-0.90284 1.2474-1.5688 2.1219-3.7582 4.9351-2.8876 3.7104-3.4133 4.4297-3.9483 5.4027-2.0452 3.7196-3.5481 10.138-4.0834 17.439-0.16969 2.3144-0.21051 3.5109-0.21256 6.2296-0.0023 3.0913 0.06848 4.757 0.32386 7.6184l0.0349 0.39104-0.26364-0.0067c-0.145-0.0037-4.4558-0.39947-9.5796-0.87954z" fill="#00BEFF" stroke="#fff" stroke-linecap="round" stroke-linejoin="round" stroke-width=".091691" /></svg>