<svg width="50" height="50" version="1.1" viewBox="0 0 50 50" xmlns="http://www.w3.org/2000/svg" xmlns:xlink="http://www.w3.org/1999/xlink"><defs><linearGradient id="linearGradient869" x1="71.1" x2="87.9" y1="167" y2="37.3" gradientTransform="matrix(.355 0 0 .355 20.5 20.9)" gradientUnits="userSpaceOnUse"><stop stop-color="#6f6f6f" offset="0" /><stop stop-color="#fbfbfb" offset="1" /></linearGradient><linearGradient id="linearGradient873" x1="14.4" x2="14.4" y1="120" y2="-13.7" gradientUnits="userSpaceOnUse" xlink:href="#linearGradient869" /><linearGradient id="linearGradient883" x1="-13.7" x2="33.9" y1="-44.1" y2="38.3" gradientUnits="userSpaceOnUse" xlink:href="#linearGradient869" /></defs><path d="m14 25s-0.932-18 18.4-18c9.23 0 17.6 7.16 17.6 18 0 19.7-17.8 25-25 25-6.43 0-11-2.54-11-2.54 2.62-9.78 10.1-10.8 10.7-10.9 8.9-1.33 11.3-6.41 11.3-11.5 0-8.24-5.91-11.1-11-11.1s-11 4.23-11 11.1z" fill="url(#linearGradient883)" fill-rule="evenodd" /><path d="m14 47.5s-14-5.86-14-22.5c0-16.6 13.2-25 25-25 16.9 0 25 14.9 25 25 0 0-0.828-18-18.1-18-8.02 0-17.9 6.27-17.9 18-0.0378 11.7 0 22.5 0 22.5z" fill="url(#linearGradient873)" fill-rule="evenodd" /></svg>