<svg fill="none" viewBox="0 0 24 24" xmlns="http://www.w3.org/2000/svg"><path d="m2.01 6.87c-0.666 3.19 1.85 6.99 5 10.1 3.16 3.16 6.95 5.67 10.1 5 2.62-0.548 3.96-1.95 4.72-3.14 0.26-0.411 0.129-0.944-0.261-1.24l-3.69-2.75c-0.398-0.297-0.954-0.257-1.3 0.0945l-1.96 1.96s-1.9-0.619-4.43-3.14c-2.52-2.52-3.14-4.43-3.14-4.43l1.96-1.96c0.351-0.351 0.391-0.907 0.0945-1.31l-2.75-3.69c-0.291-0.39-0.824-0.521-1.24-0.261-1.19 0.754-2.59 2.09-3.14 4.72z" fill="#fff" stroke="#fff" stroke-linecap="round" stroke-linejoin="round"/></svg>