<svg fill="none" version="1.1" viewBox="0 0 56 39" xmlns="http://www.w3.org/2000/svg"><g stroke="#FFFAFA" stroke-linecap="round" stroke-linejoin="round" stroke-width="4"><path d="m36.4 19.5c0 2.22-0.885 4.34-2.46 5.91s-3.71 2.45-5.94 2.45-4.36-0.88-5.94-2.45-2.46-3.69-2.46-5.91c0-2.22 0.885-4.34 2.46-5.91 1.58-1.57 3.71-2.45 5.94-2.45s4.36 0.88 5.94 2.45c1.58 1.57 2.46 3.69 2.46 5.91z"/><path d="m28 37c-11.9 0-21.5-7.17-25.8-17.5 4.36-10.3 14-17.5 25.8-17.5s21.5 7.17 25.8 17.5c-4.36 10.3-14 17.5-25.8 17.5z"/></g></svg>