<?xml version="1.0" encoding="UTF-8"?><svg width="41" height="43" stroke-width="2" version="1.1" viewBox="0 0 41 43" xmlns="http://www.w3.org/2000/svg"><path d="m2.2874 1c-2.3439 12.528-3.1252 38.21 12.501 40.716 19.532 3.132 26.564-20.358 25.002-35.235z" fill="none" /><path d="m2.2874 1c-2.3439 12.528-3.1252 38.21 12.501 40.716 19.532 3.132 26.564-20.358 25.002-35.235z" fill="#00BEFF"/><path d="m2.2874 1c-2.3439 12.528-3.1252 38.21 12.501 40.716 19.532 3.132 26.564-20.358 25.002-35.235m-12.501 7.83s1.6136-2.4812 3.9064-3.132c2.1372-0.6066 5.469 0 5.469 0m-17.97 1.566s-3.1252-3.915-6.2503-3.915c-2.1358 0-5.4691 2.349-5.4691 2.349m4.6878 11.745h21.095c-1.3022 3.132-5.6253 9.396-12.501 9.396-6.8754 0-8.5942-6.264-8.5942-9.396z" fill="none" stroke="#fff" stroke-linecap="round" stroke-linejoin="round" /></svg>