<?xml version="1.0" encoding="UTF-8"?><svg width="172" height="258" fill="none" version="1.1" viewBox="0 0 172 258" xmlns="http://www.w3.org/2000/svg" xmlns:xlink="http://www.w3.org/1999/xlink"><defs><radialGradient id="radialGradient9" cx="42.367" cy="91.483" r="42.57" gradientTransform="matrix(-.12533 -1.7948 1.9132 -.13359 -110.77 177.51)" gradientUnits="userSpaceOnUse"><stop stop-color="#fdf777" stop-opacity=".95721" offset="0"/><stop stop-color="#fdce6c" stop-opacity="0" offset="1"/></radialGradient><radialGradient id="radialGradient11" cx="125.76" cy="185.78" r="39.839" gradientTransform="matrix(.81082 .58529 -1.0157 1.4071 214.56 -153.1)" gradientUnits="userSpaceOnUse"><stop offset="0"/><stop stop-color="#683c06" stop-opacity="0" offset="1"/></radialGradient></defs><path d="m55 141.5c-31.069-23.006-54.5-23.5-54.5-23.5s42.852-0.866 61-20c19.883-20.963 21.534-68.409 21.291-88.374-0.2584-5.665-0.2907-9.1256-0.2907-9.1256s0.2217 3.4541 0.2907 9.1256c0.932 20.43 4.8048 69.529 20.709 88.374 19.744 23.395 68 20 68 20s-34.075 12.79-52.5 31.5c-27.91 28.341-19.5 77.5-19.5 108-15.5-77.5-28-103.78-44.5-116z" fill="#f7931a"/><path d="m66.549 92.273c13.667-19.584 14.809-55.678 15.951-91.773 2.9949 42.05 5.9897 84.099-7.6772 103.68-13.667 19.584-43.995 16.701-74.323 13.818 26.191-3.0717 52.382-6.1433 66.049-25.727z" fill="url(#radialGradient9)"/><path d="m171.5 118c-24.635 12.129-53.109 26.148-63.239 45.774-10.129 19.626-9.3959 59.355-8.7613 93.726-6.088-41.705-12.176-83.409-0.17553-106.66 12-23.25 42.088-28.045 72.176-32.84z" fill="url(#radialGradient11)"/></svg>