<svg width="55" height="55" viewBox="0 0 55 55" fill="none" xmlns="http://www.w3.org/2000/svg">
<path id="Vector 92" d="M5.93993 1.30988C0.79527 16.5459 -4.46956 48.2491 15.6284 53.1743C40.7508 59.3307 53.859 31.071 54.2635 12.4711M36.5619 20.706C36.5619 20.706 39.0896 17.8226 42.2067 17.2844C45.1123 16.7827 49.3858 17.9225 49.3858 17.9225M25.539 17.7645C25.539 17.7645 22.0829 12.5531 17.9806 12.1885C15.177 11.9393 10.4139 14.4584 10.4139 14.4584M14.6286 29.5455L42.3192 32.0069C40.0929 35.7323 33.3841 42.9826 24.359 42.1804C15.334 41.3781 14.1117 33.4229 14.6286 29.5455Z" stroke="white" stroke-linecap="round" stroke-linejoin="round"/>
</svg>
