<svg width="61" height="89" viewBox="0 0 61 89" fill="none" xmlns="http://www.w3.org/2000/svg">
<path id="Vector 91" d="M28.6684 87.9385C28.8452 71.6696 33.6989 55.1902 39.8575 48.848C46.016 42.5058 55.7041 34.5984 57.9246 27.9062C59.7011 22.5524 51.5512 29.2186 47.2543 33.221C52.429 25.9562 62.2376 10.5018 60.0744 6.80206C57.9112 3.10234 48.0859 18.6805 44.3889 24.824C46.992 18.5833 53.0386 1.79236 48.8381 1.41897C44.6375 1.04559 41.0066 13.667 39.7162 20.0243C39.0835 24.7699 37.0469 34.0673 33.9625 33.2921C32.6043 32.9508 32.2052 30.8244 32.2964 28.1334M34.7954 17.0816C34.0586 19.8204 32.7916 24.4194 32.2964 28.1334M32.2964 28.1334C31.7577 29.7557 30.024 32.942 27.3986 32.7087C26.0957 32.5928 26.1825 29.8237 26.8251 26.3944M29.4619 17.2339C28.5368 19.991 27.4772 22.9138 26.8251 26.3944M29.4619 17.2339L26.8251 26.3944M29.4619 17.2339C27.3279 18.2968 23.8318 19.6145 22.6434 28.528C21.4549 37.4415 22.4705 39.7865 21.8102 44.7385C21.15 49.6904 0.528481 84.8108 0.528481 84.8108" stroke="white" stroke-linecap="round" stroke-linejoin="round"/>
</svg>
