<svg width="30" height="21" viewBox="0 0 30 21" fill="none" xmlns="http://www.w3.org/2000/svg">
<path id="Send" d="M6.38258 20.2888C6.17086 20.3338 5.94864 20.3027 5.75206 20.1947L5.73672 20.1866L5.73037 20.1834C5.42653 20.0086 5.24584 19.6657 5.27682 19.3096L5.9534 9.83439L0.352718 2.14964C0.14261 1.87655 0.111157 1.48833 0.279988 1.17215C0.446254 0.859921 0.782256 0.668214 1.13667 0.685933L28.6356 2.42922C28.6826 2.4317 28.7952 2.45429 28.8651 2.47348C28.9389 2.48957 29.0076 2.51922 29.0684 2.55964C29.095 2.57782 29.1765 2.65695 29.1765 2.65695C29.5643 3.0239 29.5994 3.55206 29.3056 3.92091C29.268 3.9686 29.153 4.07362 29.1025 4.10819L6.72735 20.1383C6.61962 20.2134 6.50309 20.2632 6.38258 20.2888ZM7.7608 10.2707L7.24353 17.5003L23.7122 5.69878L7.7608 10.2707ZM2.98489 2.64891L7.25811 8.4983L23.1873 3.92886L2.98489 2.64891Z" fill="white"/>
</svg>
