<svg width="47" height="30" viewBox="0 0 47 30" fill="none" xmlns="http://www.w3.org/2000/svg">
<path id="Vector" d="M9.71121 17.7445C10.0614 17.4043 10.2709 17.0081 10.3048 16.6221C10.4761 14.6702 11.258 12.6138 12.7058 10.5948C14.4347 8.18385 16.9732 6.05942 20.0004 4.49011C23.0276 2.92081 26.4075 1.97712 29.7127 1.77838C33.0178 1.57964 36.0999 2.13477 38.569 3.37358C41.0381 4.61238 42.7834 6.47922 43.5843 8.73802C44.3851 10.9968 44.2054 13.5461 43.068 16.0636C41.9306 18.581 39.8865 20.9535 37.1943 22.8811C34.502 24.8086 31.2825 26.2046 27.9429 26.8926C24.6032 27.5806 21.2934 27.5296 18.432 26.7461C16.0375 26.0904 14.1331 24.9852 12.7706 23.5771C12.5011 23.2987 12.0888 23.1229 11.6025 23.0793L4.84473 22.4725L9.71121 17.7445Z" stroke="#FFFAFA" stroke-width="4" stroke-linecap="round" stroke-linejoin="round"/>
</svg>
