<svg width="133" height="101" viewBox="0 0 133 101" fill="none" xmlns="http://www.w3.org/2000/svg">
<path id="Vector 90" d="M34.6503 0.365769L123.361 6.18264C129.097 6.55872 133.335 11.6807 132.632 17.3851L127.5 59L101.5 55.5C100.5 57.9294 96.9 58.7 92.5 69.5C88.1 80.3 88.7611 94.6667 89.9277 100.5L67.9277 98.5L79.6453 65.2222C80.1599 63.7607 80.3278 62.1997 80.1359 60.6622L79.4277 54.9894L66.4277 53.5706C64.7611 55.2137 59.5277 58.6 51.9277 59C44.3277 59.4 36.6667 48.977 35.5 46L0 41L25.8386 4.56014C27.8479 1.72641 31.1839 0.138475 34.6503 0.365769Z" fill="#00BEFF" fill-opacity="0.5"/>
</svg>
