<svg width="68" height="29" viewBox="0 0 68 29" fill="none" xmlns="http://www.w3.org/2000/svg">
<g id="2 hours ago">
<path id="Vector" d="M62.8472 7.96387C62.3225 8.1307 61.7878 8.17618 61.2431 8.10031C60.7016 8.01609 60.1951 7.81823 59.7233 7.50673C59.2549 7.18689 58.8679 6.76422 58.5625 6.23871C58.257 5.7132 58.1138 5.2167 58.1327 4.74921C58.1481 4.27553 58.3059 3.86643 58.6063 3.5219C58.903 3.17118 59.3137 2.91241 59.8385 2.74558C60.3632 2.57874 60.8997 2.53636 61.448 2.61841C61.9995 2.69211 62.5095 2.88889 62.978 3.20873C63.4497 3.52022 63.8383 3.93873 64.1437 4.46423C64.4456 4.98356 64.5888 5.48006 64.5734 5.95373C64.5581 6.42741 64.3986 6.84069 64.0951 7.19357C63.7879 7.54027 63.372 7.79704 62.8472 7.96387ZM62.5184 7.39817C62.8864 7.28118 63.1841 7.09865 63.4113 6.85061C63.6349 6.59639 63.7541 6.28747 63.7689 5.92386C63.7868 5.55191 63.6664 5.14337 63.4077 4.69823C63.149 4.25309 62.8362 3.90939 62.4693 3.66712C62.0988 3.41866 61.7137 3.27008 61.314 3.22136C60.9107 3.16647 60.525 3.19752 60.1571 3.31452C59.7891 3.43152 59.4932 3.61713 59.2696 3.87135C59.0424 4.1194 58.9232 4.42831 58.912 4.7981C58.9041 5.15954 59.0295 5.56283 59.2882 6.00796C59.5469 6.4531 59.8581 6.80098 60.2218 7.0516C60.5887 7.29387 60.9704 7.44354 61.3669 7.5006C61.7666 7.54932 62.1505 7.51517 62.5184 7.39817Z" fill="#00070F"/>
<path id="Vector_2" d="M52.6133 5.04239C53.138 4.87556 53.6593 4.84167 54.1771 4.94074C54.6949 5.03981 55.1378 5.23228 55.5058 5.51815L54.8644 4.41459L55.5799 4.18709L58.5983 9.38033C58.8678 9.84402 58.9944 10.2909 58.9779 10.721C58.9682 11.1489 58.8215 11.5215 58.5376 11.8388C58.2573 12.1623 57.8651 12.4042 57.3608 12.5646C56.6452 12.7921 55.9591 12.8271 55.3024 12.6696C54.6525 12.51 54.1151 12.1828 53.6903 11.6879L54.3956 11.4637C54.7231 11.7771 55.1183 11.9847 55.5812 12.0866C56.0509 12.1863 56.5345 12.1571 57.032 11.9989C57.3932 11.8841 57.6755 11.71 57.8791 11.4768C58.0863 11.2498 58.1926 10.9743 58.198 10.6503C58.2035 10.3263 58.0984 9.97878 57.8828 9.60783L57.1551 8.35589C57.1792 8.75844 57.0635 9.13583 56.808 9.48808C56.5557 9.83198 56.1672 10.0873 55.6425 10.2542C55.1314 10.4167 54.6085 10.4547 54.0739 10.3683C53.546 10.2798 53.0513 10.0745 52.5896 9.7525C52.1347 9.42832 51.7564 9.00657 51.4545 8.48725C51.1527 7.96792 51.001 7.47776 50.9995 7.01677C51.0012 6.54743 51.1421 6.14374 51.4219 5.80571C51.7051 5.45932 52.1022 5.20488 52.6133 5.04239ZM56.3358 6.94629C56.0987 6.53825 55.7983 6.20892 55.4346 5.9583C55.0709 5.70768 54.6805 5.54982 54.2631 5.48472C53.8526 5.41746 53.4566 5.4445 53.075 5.56583C52.6797 5.69149 52.3721 5.88453 52.152 6.14494C51.932 6.40535 51.8198 6.71936 51.8154 7.08698C51.8143 7.44626 51.9359 7.8361 52.1803 8.2565C52.421 8.67072 52.7216 9.00732 53.0821 9.26629C53.4458 9.51691 53.8328 9.67586 54.2433 9.74312C54.6502 9.8042 55.0513 9.7719 55.4466 9.64624C55.8282 9.5249 56.1272 9.33094 56.3437 9.06435C56.567 8.79559 56.6808 8.47741 56.6851 8.10979C56.6894 7.74216 56.573 7.35433 56.3358 6.94629Z" fill="#00070F"/>
<path id="Vector_3" d="M44.353 10.7455C44.0511 10.2262 43.8995 9.73606 43.898 9.27507C43.8997 8.80573 44.0405 8.40204 44.3204 8.06401C44.6035 7.71762 45.0006 7.46319 45.5117 7.30069C46.0433 7.13169 46.5645 7.09781 47.0755 7.19904C47.5933 7.29811 48.038 7.49367 48.4096 7.78572L47.7628 6.67289L48.4784 6.44539L51.4213 11.5088L50.7058 11.7363L50.0536 10.6142C50.0776 11.0167 49.9619 11.3941 49.7064 11.7464C49.4542 12.0903 49.0622 12.3467 48.5307 12.5157C48.0264 12.6761 47.5069 12.713 46.9723 12.6266C46.4445 12.5381 45.9497 12.3328 45.488 12.0108C45.0332 11.6866 44.6548 11.2649 44.353 10.7455ZM49.2343 9.20459C48.9971 8.79655 48.6967 8.46722 48.333 8.2166C47.9694 7.96598 47.5789 7.80812 47.1616 7.74302C46.7511 7.67576 46.355 7.7028 45.9734 7.82413C45.5781 7.9498 45.2705 8.14283 45.0504 8.40324C44.8304 8.66365 44.7182 8.97766 44.7139 9.34528C44.7128 9.70456 44.8344 10.0944 45.0787 10.5148C45.3195 10.929 45.6201 11.2656 45.9805 11.5246C46.3442 11.7752 46.7313 11.9342 47.1418 12.0014C47.5487 12.0625 47.9498 12.0302 48.345 11.9045C48.7266 11.7832 49.0257 11.5892 49.2421 11.3227C49.4654 11.0539 49.5792 10.7357 49.5835 10.3681C49.5879 10.0005 49.4714 9.61263 49.2343 9.20459Z" fill="#00070F"/>
<path id="Vector_4" d="M39.697 15.3244C39.0564 15.5281 38.4544 15.562 37.891 15.4262C37.3309 15.282 36.8922 14.9856 36.575 14.5371L37.311 14.3031C37.5103 14.5767 37.7916 14.7619 38.1548 14.8589C38.5211 14.9475 38.9258 14.9214 39.3688 14.7805C39.7572 14.657 40.012 14.4772 40.133 14.2409C40.2609 14.0025 40.2529 13.7596 40.1092 13.5123C40.0086 13.3392 39.8646 13.2165 39.6773 13.1442C39.4899 13.072 39.2829 13.0352 39.0561 13.0341C38.8326 13.0246 38.5391 13.0336 38.1757 13.0613C37.7025 13.0945 37.3077 13.1029 36.9913 13.0863C36.6748 13.0697 36.3689 12.9948 36.0735 12.8616C35.7813 12.7201 35.54 12.4856 35.3496 12.1579C35.2058 11.9106 35.1546 11.6558 35.196 11.3936C35.2374 11.1314 35.3721 10.8908 35.6001 10.6719C35.828 10.4529 36.1328 10.2827 36.5145 10.1614C37.1142 9.97073 37.6789 9.956 38.2086 10.1172C38.7347 10.2722 39.1515 10.5865 39.459 11.0601L38.7435 11.2876C38.5506 10.9973 38.2827 10.8005 37.94 10.697C37.6005 10.5852 37.2263 10.5943 36.8174 10.7243C36.4562 10.8391 36.2081 11.0096 36.0731 11.2357C35.938 11.4617 35.937 11.6891 36.0699 11.9179C36.1849 12.1157 36.3449 12.259 36.5498 12.3476C36.758 12.4279 36.9824 12.4738 37.2232 12.4851C37.4603 12.4903 37.771 12.4831 38.1553 12.4635C38.6148 12.4346 38.9908 12.4286 39.2832 12.4455C39.5757 12.4624 39.8591 12.5334 40.1337 12.6585C40.4083 12.7836 40.6352 12.9935 40.8145 13.2881C40.9726 13.5601 41.0328 13.8303 40.995 14.0987C40.9536 14.3609 40.8224 14.6004 40.6012 14.8172C40.38 15.034 40.0786 15.2031 39.697 15.3244Z" fill="#00070F"/>
<path id="Vector_5" d="M32.1194 12.712C32.0929 12.3469 32.1895 12.0269 32.4092 11.7519C32.6357 11.4748 32.984 11.2615 33.4542 11.112L33.8477 11.789L33.6535 11.8508C33.1356 12.0154 32.7935 12.2743 32.6274 12.6275C32.4612 12.9806 32.5506 13.4539 32.8956 14.0475L34.5396 16.8759L33.824 17.1034L30.881 12.04L31.5966 11.8125L32.1194 12.712Z" fill="#00070F"/>
<path id="Vector_6" d="M29.0434 12.6247L31.9863 17.6882L31.2708 17.9157L30.7534 17.0254C30.7731 17.3927 30.6611 17.714 30.4173 17.9892C30.1736 18.2645 29.8405 18.4693 29.418 18.6036C28.7502 18.8159 28.0972 18.8038 27.4591 18.5672C26.8174 18.3244 26.2899 17.8475 25.8767 17.1365L24.1572 14.1782L24.8626 13.954L26.5389 16.8381C26.8587 17.3883 27.2529 17.7611 27.7217 17.9563C28.1972 18.1494 28.6974 18.1625 29.2221 17.9957C29.7605 17.8245 30.1 17.5334 30.2406 17.1225C30.3812 16.7115 30.2772 16.2062 29.9287 15.6065L28.3278 12.8522L29.0434 12.6247Z" fill="#00070F"/>
<path id="Vector_7" d="M22.8746 20.6729C22.3499 20.8397 21.8151 20.8852 21.2705 20.8093C20.729 20.7251 20.2224 20.5272 19.7507 20.2157C19.2822 19.8959 18.8952 19.4732 18.5898 18.9477C18.2844 18.4222 18.1411 17.9257 18.1601 17.4582C18.1754 16.9845 18.3333 16.5754 18.6336 16.2309C18.9304 15.8802 19.3411 15.6214 19.8658 15.4546C20.3906 15.2877 20.9271 15.2453 21.4753 15.3274C22.0268 15.4011 22.5368 15.5979 23.0053 15.9177C23.477 16.2292 23.8656 16.6477 24.1711 17.1732C24.4729 17.6925 24.6161 18.189 24.6008 18.6627C24.5854 19.1364 24.426 19.5497 24.1224 19.9026C23.8153 20.2493 23.3993 20.506 22.8746 20.6729ZM22.5458 20.1072C22.9138 19.9902 23.2114 19.8076 23.4386 19.5596C23.6623 19.3054 23.7815 18.9965 23.7962 18.6328C23.8142 18.2609 23.6938 17.8524 23.4351 17.4072C23.1763 16.9621 22.8635 16.6184 22.4967 16.3761C22.1262 16.1276 21.7411 15.9791 21.3414 15.9303C20.938 15.8755 20.5524 15.9065 20.1844 16.0235C19.8164 16.1405 19.5206 16.3261 19.2969 16.5803C19.0697 16.8284 18.9505 17.1373 18.9394 17.5071C18.9314 17.8685 19.0568 18.2718 19.3156 18.7169C19.5743 19.1621 19.8855 19.51 20.2491 19.7606C20.616 20.0029 20.9977 20.1525 21.3942 20.2096C21.7939 20.2583 22.1778 20.2242 22.5458 20.1072Z" fill="#00070F"/>
<path id="Vector_8" d="M13.3761 17.4956C13.7986 17.3613 14.2235 17.3214 14.6509 17.376C15.085 17.4284 15.4945 17.5912 15.8794 17.8644C16.2675 18.1292 16.5998 18.4997 16.8765 18.9757L18.6014 21.9433L17.896 22.1675L16.2143 19.2742C15.8945 18.7239 15.4968 18.3523 15.0213 18.1592C14.5526 17.964 14.0558 17.9498 13.5311 18.1166C12.9927 18.2877 12.6532 18.5788 12.5126 18.9898C12.372 19.4007 12.476 19.906 12.8245 20.5057L14.4307 23.2693L13.7152 23.4968L9.72656 16.6343L10.4421 16.4068L11.9891 19.0683C11.9902 18.709 12.1126 18.3918 12.3563 18.1165C12.6068 17.8391 12.9467 17.6321 13.3761 17.4956Z" fill="#00070F"/>
<path id="Vector_9" d="M4.05867 25.9628C4.8167 24.711 5.34061 23.6398 5.6304 22.7493C5.92342 21.8504 5.88128 21.0763 5.50397 20.4272C5.25603 20.0006 4.93914 19.6985 4.5533 19.5208C4.17067 19.3348 3.71359 19.3263 3.18204 19.4953C2.66412 19.66 2.34829 19.9362 2.23456 20.324C2.12404 20.7034 2.19368 21.1427 2.44349 21.6419L1.74838 21.8629C1.39041 21.1637 1.31308 20.5583 1.5164 20.0469C1.72294 19.5271 2.17035 19.1577 2.85864 18.9389C3.51967 18.7287 4.15344 18.7287 4.75996 18.9387C5.36288 19.1426 5.84401 19.5536 6.20335 20.1719C6.63815 20.9199 6.71622 21.7558 6.43758 22.6794C6.16216 23.5947 5.71761 24.5454 5.10392 25.5316L8.88609 24.3292L9.20411 24.8763L4.32817 26.4265L4.05867 25.9628Z" fill="#00070F"/>
</g>
</svg>
