<svg width="104" height="45" viewBox="0 0 104 45" fill="none" xmlns="http://www.w3.org/2000/svg">
<g id="Tyler Jones">
<path id="Vector" d="M97.5986 12.0211C96.8742 12.2514 96.157 12.342 95.4469 12.293C94.7312 12.2343 94.085 12.0561 93.5082 11.7586C92.942 11.4577 92.4997 11.0659 92.1813 10.5832L94.4343 9.86683C94.6567 10.1625 94.9707 10.3662 95.3763 10.4777C95.7925 10.5858 96.219 10.5704 96.6558 10.4315C97.0819 10.2961 97.3672 10.1138 97.5117 9.88462C97.6668 9.65209 97.6741 9.41503 97.5337 9.17342C97.3821 8.91248 97.1206 8.76661 96.7493 8.7358C96.383 8.69195 95.8354 8.69431 95.1063 8.74289C94.3616 8.80791 93.7312 8.83085 93.2152 8.8117C92.7099 8.78915 92.2101 8.66753 91.7158 8.44682C91.2322 8.22273 90.8331 7.84008 90.5185 7.29888C90.2601 6.85432 90.1627 6.40439 90.2262 5.94908C90.3004 5.49039 90.5367 5.07176 90.9351 4.69318C91.3441 4.31122 91.9055 4.00678 92.6193 3.77986C93.6739 3.44456 94.6559 3.41861 95.5653 3.702C96.469 3.97573 97.1888 4.50833 97.7245 5.29982L95.5833 5.98058C95.366 5.67182 95.0708 5.46796 94.6978 5.36901C94.3298 5.25701 93.9274 5.27044 93.4906 5.4093C93.0858 5.538 92.8109 5.70556 92.6658 5.91199C92.5314 6.11503 92.5344 6.33735 92.6748 6.57896C92.8321 6.84956 93.102 7.00993 93.4845 7.06007C93.8615 7.10053 94.4063 7.09334 95.1191 7.03848C95.8425 6.98023 96.4569 6.96238 96.9622 6.98492C97.4675 7.00746 97.9648 7.13561 98.4541 7.36937C98.9484 7.59007 99.3553 7.9645 99.6749 8.49265C99.9446 8.95654 100.042 9.41783 99.9681 9.87652C99.9046 10.3318 99.6683 10.7505 99.2592 11.1324C98.8552 11.5013 98.3017 11.7976 97.5986 12.0211Z" fill="#00070F"/>
<path id="Vector_2" d="M89.7479 9.39887C89.9164 9.6888 90.0468 9.95652 90.139 10.202L83.6674 12.2595C84.0577 12.8225 84.5454 13.2056 85.1306 13.4088C85.7157 13.6121 86.2959 13.6223 86.8712 13.4394C87.7021 13.1752 88.1051 12.6635 88.0803 11.9042L90.4932 11.1371C90.6869 11.9915 90.5676 12.7852 90.1353 13.518C89.6974 14.2412 88.9511 14.7705 87.8965 15.1058C87.0442 15.3767 86.1789 15.4515 85.3006 15.33C84.4272 15.1954 83.6163 14.875 82.8676 14.3688C82.1297 13.8591 81.522 13.1936 81.0445 12.3721C80.5614 11.541 80.3238 10.752 80.3315 10.0053C80.3392 9.25857 80.5804 8.6094 81.0549 8.05777C81.5294 7.50614 82.2034 7.09147 83.077 6.81375C83.9185 6.54618 84.765 6.4717 85.6165 6.5903C86.4786 6.70552 87.2677 7.00997 87.9838 7.50367C88.7049 7.98432 89.2929 8.61606 89.7479 9.39887ZM87.0939 9.55566C86.7799 9.03717 86.3307 8.68764 85.7461 8.50709C85.1559 8.31686 84.5679 8.31489 83.982 8.50117C83.4281 8.67729 83.0492 8.98094 82.8455 9.41213C82.6467 9.83026 82.6621 10.3235 82.8914 10.8918L87.0939 9.55566Z" fill="#00070F"/>
<path id="Vector_3" d="M73.2396 9.95841C74.2942 9.62311 75.3234 9.65658 76.3271 10.0588C77.3251 10.4514 78.1387 11.1889 78.7679 12.2713L81.5062 16.9827L79.2691 17.694L76.6909 13.258C76.3201 12.6202 75.8607 12.188 75.3126 11.9615C74.7588 11.7254 74.1783 11.7038 73.5711 11.8969C72.9533 12.0933 72.5643 12.4231 72.4044 12.8861C72.2494 13.3362 72.3573 13.8801 72.728 14.5179L75.3063 18.9539L73.0692 19.6651L68.4014 11.634L70.6385 10.9228L71.2198 11.9231C71.3159 11.4803 71.5368 11.0895 71.8825 10.7505C72.2333 10.3986 72.6856 10.1345 73.2396 9.95841Z" fill="#00070F"/>
<path id="Vector_4" d="M66.5665 21.8869C65.7143 22.1579 64.849 22.2326 63.9706 22.1111C63.0866 21.9799 62.265 21.6629 61.5057 21.1601C60.7571 20.6538 60.144 19.9899 59.6666 19.1685C59.1891 18.347 58.9649 17.5595 58.994 16.806C59.0337 16.0491 59.3014 15.3915 59.7972 14.8331C60.2875 14.265 60.9587 13.8455 61.8109 13.5746C62.6631 13.3036 63.5365 13.232 64.4312 13.3598C65.3202 13.4779 66.1444 13.7884 66.9036 14.2913C67.6736 14.7907 68.2972 15.4512 68.7747 16.2727C69.2522 17.0942 69.4657 17.885 69.4154 18.6453C69.3757 19.4022 69.1054 20.0664 68.6045 20.6378C68.1087 21.1962 67.4294 21.6126 66.5665 21.8869ZM65.5385 20.1183C65.9433 19.9896 66.271 19.7824 66.5214 19.4967C66.7769 19.1979 66.9072 18.8359 66.9124 18.4106C66.9177 17.9852 66.7714 17.5165 66.4737 17.0043C66.0299 16.2408 65.4664 15.7272 64.7831 15.4635C64.1048 15.1868 63.446 15.1501 62.8069 15.3533C62.1677 15.5565 61.7505 15.9353 61.5553 16.4898C61.3651 17.0312 61.4919 17.6836 61.9356 18.4471C62.3794 19.2106 62.9298 19.734 63.5867 20.0175C64.2488 20.2879 64.8994 20.3216 65.5385 20.1183Z" fill="#00070F"/>
<path id="Vector_5" d="M53.7496 13.8189L57.8782 20.9222C58.4511 21.9079 58.5834 22.7762 58.2751 23.5269C57.9611 24.2679 57.2768 24.8061 56.2222 25.1414C55.1569 25.48 54.1312 25.4741 53.1449 25.1236C52.1693 24.7696 51.3894 24.0901 50.8052 23.085L53.0423 22.3738C53.3057 22.8053 53.6142 23.108 53.9677 23.2819C54.3318 23.4523 54.7216 23.4715 55.1371 23.3395C55.5419 23.2107 55.7834 22.9966 55.8616 22.6969C55.9399 22.3972 55.861 22.0444 55.6251 21.6385L51.4965 14.5352L53.7496 13.8189Z" fill="#00070F"/>
<path id="Vector_6" d="M40.5135 21.9771C40.5539 21.4604 40.733 21.0085 41.0506 20.6212C41.3789 20.2306 41.8414 19.9404 42.4379 19.7508L43.6765 21.8818L43.0853 22.0697C42.3822 22.2933 41.9366 22.6124 41.7485 23.0272C41.5711 23.4385 41.6987 24.0163 42.1312 24.7605L44.4567 28.7615L42.2196 29.4727L37.5518 21.4417L39.7889 20.7304L40.5135 21.9771Z" fill="#00070F"/>
<path id="Vector_7" d="M37.8319 25.9042C38.0004 26.1942 38.1308 26.4619 38.223 26.7074L31.7514 28.7649C32.1417 29.3278 32.6294 29.7109 33.2146 29.9142C33.7997 30.1175 34.3799 30.1277 34.9551 29.9448C35.7861 29.6806 36.1891 29.1689 36.1643 28.4096L38.5772 27.6425C38.7709 28.4969 38.6516 29.2906 38.2193 30.0234C37.7813 30.7466 37.0351 31.2758 35.9805 31.6111C35.1282 31.8821 34.2629 31.9568 33.3846 31.8353C32.5112 31.7008 31.7002 31.3804 30.9516 30.8741C30.2137 30.3645 29.606 29.6989 29.1285 28.8775C28.6454 28.0463 28.4078 27.2574 28.4155 26.5107C28.4232 25.7639 28.6644 25.1148 29.1389 24.5631C29.6134 24.0115 30.2874 23.5968 31.161 23.3191C32.0025 23.0516 32.849 22.9771 33.7005 23.0957C34.5626 23.2109 35.3517 23.5153 36.0678 24.009C36.7889 24.4897 37.3769 25.1214 37.8319 25.9042ZM35.1779 26.061C34.8639 25.5425 34.4147 25.193 33.8301 25.0125C33.2399 24.8222 32.6519 24.8203 32.066 25.0065C31.512 25.1827 31.1332 25.4863 30.9294 25.9175C30.7307 26.3356 30.746 26.8289 30.9754 27.3972L35.1779 26.061Z" fill="#00070F"/>
<path id="Vector_8" d="M23.2742 22.7868L29.5092 33.5143L27.2721 34.2255L21.0371 23.498L23.2742 22.7868Z" fill="#00070F"/>
<path id="Vector_9" d="M21.0775 26.6796L22.4721 40.2513L20.0912 41.0083L19.6832 36.3976L11.5859 29.6973L14.0947 28.8997L19.6404 33.7833L18.6967 27.4365L21.0775 26.6796Z" fill="#00070F"/>
<path id="Vector_10" d="M9.44402 27.9052L10.3961 29.5433L7.424 30.4883L12.353 38.9688L10.116 39.68L5.18692 31.1995L2.2148 32.1445L1.2627 30.5063L9.44402 27.9052Z" fill="#00070F"/>
</g>
</svg>
