<svg width="199" height="121" viewBox="0 0 199 121" fill="none" xmlns="http://www.w3.org/2000/svg">
<path id="Rectangle 14" d="M19.7879 -20.8148L190.204 -5.66671C195.705 -5.17772 199.573 -0.343432 198.843 5.13097L190.426 68.2598L142.513 64.0009C141.911 65.2 139.654 68.5069 135.451 72.1417C130.196 76.6853 129.214 74.0926 121.408 87.8044C115.164 98.7738 113.84 113.02 113.67 120.938L85.4475 118.43C92.1025 106.703 105.659 82.396 106.647 78.9763C107.634 75.5566 107.341 65.4675 107.071 60.8505L93.288 59.6253C90.4688 62.5064 82.1555 68.4065 71.456 68.9586C60.7566 69.5107 55.2992 60.6328 53.9079 56.1249L0.0883354 51.3409L8.50551 -11.7879C9.23543 -17.2623 14.2867 -21.3038 19.7879 -20.8148Z" fill="#00BEFF" fill-opacity="0.5"/>
</svg>
