<svg width="117" height="117" viewBox="0 0 117 117" fill="none" xmlns="http://www.w3.org/2000/svg">
<g id="Group 24">
<circle id="Ellipse 12" cx="58.5" cy="58" r="57" stroke="white" stroke-opacity="0.3" stroke-width="2"/>
<path id="Vector 91" d="M77.8075 61.5731C77.4743 64.2266 76.8883 68.685 76.8883 72.2409M76.8883 72.2409C77.1282 74.7949 77.7401 76.7734 78.9984 76.9822C81.8559 77.4563 82.5702 68.4874 82.5702 63.9437C82.9671 57.8196 84.7134 45.5713 88.5234 45.5713C92.3334 45.5713 88.92 61.9682 87.3325 68.0923C89.9122 61.9682 96.8578 46.401 99.239 49.7199C101.62 53.0388 94.6749 68.4874 90.9046 75.7969C94.2781 71.6483 100.787 64.6549 99.8343 69.8703C98.6437 76.3896 90.9044 84.6868 86.1419 91.206C83.4476 94.8942 81.5154 102.186 80.6687 110.614M76.8883 72.2409C76.5993 73.8214 75.426 76.9822 73.0448 76.9822C71.863 76.9822 71.6098 74.3547 71.7759 71.0556M73.0448 62.1657C72.545 64.8525 71.9445 67.7073 71.7759 71.0556M73.0448 62.1657L71.7759 71.0556M73.0448 62.1657C71.2589 63.3511 68.2825 64.892 68.2825 73.4263C68.2825 81.9605 69.4731 84.0941 69.4731 88.8354C69.4731 91.6121 64.5727 104.756 60.5117 115.171" stroke="white" stroke-opacity="0.3" stroke-width="2" stroke-linecap="round" stroke-linejoin="round"/>
<path id="Vector 92" d="M17.9116 18.2285C14.874 34.432 13.8615 67.6491 34.112 70.8898C59.4252 74.9407 68.5386 44.5592 66.5136 25.3175M50.3131 35.4447C50.3131 35.4447 52.4044 32.2356 55.3758 31.3938C58.1455 30.6092 62.4635 31.3938 62.4635 31.3938M39.1753 33.4193C39.1753 33.4193 35.1252 28.3557 31.0751 28.3557C28.3072 28.3557 23.9874 31.3938 23.9874 31.3938M30.0626 46.5846H57.4008C55.7133 50.6355 50.1106 58.7372 41.2004 58.7372C32.2901 58.7372 30.0626 50.6355 30.0626 46.5846Z" stroke="white" stroke-opacity="0.3" stroke-width="2" stroke-linecap="round" stroke-linejoin="round"/>
</g>
</svg>
